<svg width="1200" height="1200" xmlns="http://www.w3.org/2000/svg" xmlns:xlink="http://www.w3.org/1999/xlink" version="1.1"><g transform="scale(10.80799764779556) translate(4.118946128421358, 5.507443957858616)">            <linearGradient id="SvgjsLinearGradient14232"><stop id="SvgjsStop14233" stop-color="#147d6c" offset="0"/><stop id="SvgjsStop14234" stop-color="#1effff" offset="1"/></linearGradient>            <g fill="url(#SvgjsLinearGradient14232)"><linearGradient id="SvgjsLinearGradient14232"><stop id="SvgjsStop14233" stop-color="#147d6c" offset="0"/><stop id="SvgjsStop14234" stop-color="#1effff" offset="1"/></linearGradient><path xmlns="http://www.w3.org/2000/svg" fill-rule="evenodd" clip-rule="evenodd" d="M22.862,30.985l3.021-3.185v22.207v22.206l-3.021-3.185V30.985z M31.819,21.583  v-0.038l-0.02,0.018l-0.017-0.018v0.038l-5.894,6.213l21.073,22.211L25.888,72.219l5.894,6.214v0.036l0.017-0.019l0.02,0.019v-0.036  l26.966-28.425L31.819,21.583z M70.478,48.902L52.49,29.944v-29.9L36.796,16.586l0.041,0.041l-0.042,0.04l31.705,33.418  L36.856,83.429L52.551,99.97V70.163l18-18.974L100,82.227v-2.882L72.165,50.007L100,20.669v-2.883L70.478,48.902z M2.791,50.405  l15.619-16.463v32.926L2.791,50.405z M13.28,45.644l-4.518,4.761l4.518,4.762V45.644z M100,71.865V57.454l-7.08-7.464l7.08-7.463  V28.15L79.261,50.007L100,71.865z"/></g>        </g></svg>